<svg width="470.00000000000006" height="200" xmlns="http://www.w3.org/2000/svg">
 <!-- Created with Method Draw - http://github.com/duopixel/Method-Draw/ -->
 <g>
  <title>background</title>
  <rect fill="#fff" id="canvas_background" height="202" width="472" y="-1" x="-1"/>
 </g>
 <g>
  <title>Layer 1</title>
  <rect stroke="#000" id="svg_1" height="81.000001" width="112.999997" y="37.5" x="1.75" fill-opacity="null" stroke-opacity="null" stroke-width="1.5" fill="#fff"/>
  <text stroke="#000" transform="matrix(0.7262736071979459,0,0,0.9337153702672367,-57.22807904904675,3.3430941564047325) " xml:space="preserve" text-anchor="start" font-family="Helvetica, Arial, sans-serif" font-size="23" id="svg_2" y="20" x="80" fill-opacity="null" stroke-opacity="null" stroke-width="0" fill="#000000">func(x,y,*args,**kwargs)</text>
  <text xml:space="preserve" text-anchor="start" font-family="Helvetica, Arial, sans-serif" font-size="20" id="svg_3" y="81.5" x="28.8125" fill-opacity="null" stroke-opacity="null" stroke-width="0" stroke="#000" fill="#000000">Logic</text>
  <text stroke="#000" transform="matrix(0.9531152844429016,0,0,1,0.0036628684028983116,0) " xml:space="preserve" text-anchor="start" font-family="Helvetica, Arial, sans-serif" font-size="20" id="svg_8" y="154.5" x="1" fill-opacity="null" stroke-opacity="null" stroke-width="0" fill="#000000">func("name","test",2,3,4,4,5,id=1,name="some")</text>
  <rect stroke="#000" id="svg_9" height="81.000001" width="112.999997" y="37.5" x="249.75" fill-opacity="null" stroke-opacity="null" stroke-width="1.5" fill="#fff"/>
  <text stroke="#000" transform="matrix(0.7262736071979455,0,0,0.9337153702672367,187.7719209509532,1.3430941564047325) " xml:space="preserve" text-anchor="start" font-family="Helvetica, Arial, sans-serif" font-size="23" id="svg_10" y="20" x="80" fill-opacity="null" stroke-opacity="null" stroke-width="0" fill="#000000">func1(x,y,*args,**kwargs)</text>
  <text xml:space="preserve" text-anchor="start" font-family="Helvetica, Arial, sans-serif" font-size="20" id="svg_11" y="77.5" x="275.8125" fill-opacity="null" stroke-opacity="null" stroke-width="0" stroke="#000" fill="#000000">Logic</text>
  <text stroke="#000" transform="matrix(0.935614287853241,0,0,1,0.0050301337614655495,0) " xml:space="preserve" text-anchor="start" font-family="Helvetica, Arial, sans-serif" font-size="20" id="svg_12" y="182.409091" x="1" fill-opacity="null" stroke-opacity="null" stroke-width="0" fill="#000000">func1("name","test",2,3,4,4,5,id=1,name="some")</text>
  <line stroke-linecap="null" stroke-linejoin="null" id="svg_16" y2="221.5" x2="124.5" y1="220.5" x1="124.5" stroke-opacity="null" stroke-width="1.5" stroke="#000" fill="none"/>
  <line stroke-linecap="null" stroke-linejoin="null" id="svg_17" y2="172.5" x2="469.5" y1="173.5" x1="412.5" stroke-opacity="null" stroke-width="1.5" stroke="#000" fill="none"/>
  <line stroke-linecap="null" stroke-linejoin="null" id="svg_22" y2="85.5" x2="469.5" y1="84.5" x1="379.5" stroke-opacity="null" stroke-width="1.5" stroke="#000" fill="none"/>
  <line stroke-linecap="null" stroke-linejoin="null" id="svg_24" y2="172.5" x2="469.5" y1="85.5" x1="469.5" fill-opacity="null" stroke-opacity="null" stroke-width="1.5" stroke="#000" fill="none"/>
  <line stroke="#000" stroke-linecap="null" stroke-linejoin="null" id="svg_25" y2="62.5" x2="180.250083" y1="62.5" x1="126.5" stroke-opacity="null" stroke-width="1.5" fill="none"/>
  <line stroke="#000" stroke-linecap="null" stroke-linejoin="null" id="svg_27" y2="134.249984" x2="179.500041" y1="63.750029" x1="179.500041" fill-opacity="null" stroke-opacity="null" stroke-width="1.5" fill="none"/>
  <path d="m126.748718,62.249359c0.249992,0 0.499992,0 0.749992,-0.249996c0.499992,-0.499992 0.676369,-1.086533 1.249992,-1.499985c0.453491,-0.326855 0.749985,-0.749992 1.249985,-1.249989c0.25,-0.249996 0.604706,-0.854706 0.999985,-1.249989c0.395279,-0.395279 0.793274,-0.713181 0.999985,-0.999989c0.326859,-0.453499 0.673141,-0.796494 1,-1.249989c0.206726,-0.286816 0.269028,-0.404327 0.499985,-0.499992c0.326645,-0.1353 0.573227,-0.823215 0.75,-0.999992c0.176773,-0.176777 0.749985,-0.499992 1.249985,-0.999989c0.5,-0.499996 0.999985,-0.999989 1.499985,-1.499985c0.5,-0.499996 0.999985,-0.749992 1.499985,-1.249989c0.5,-0.499992 1.153442,-0.824238 1.749985,-1.499985c0.369949,-0.419075 0.823212,-0.573215 0.999985,-0.749992c0.353546,-0.353546 0.455933,-1.121552 1,-1.249985c0.243301,-0.057434 0.249985,-0.25 0.499985,-0.499996c0.25,-0.249996 0.5,-0.249996 0.75,-0.499996c0.25,-0.249996 0.499985,-0.499992 0.749985,-0.749992c0,0 0.25,-0.249996 0,-0.249996l0,0" id="svg_28" fill-opacity="null" stroke-opacity="null" stroke-width="1.5" stroke="#000" fill="none"/>
  <path d="m126.498718,62.499355c0.25,0 0.25,0 0.499992,0c0.25,0 0.25,0.25 0.25,0.25c0.25,0.249996 0.7061,0.274464 0.999992,0.749992c0.131424,0.212658 0.274475,0.706097 0.749985,0.999989c0.212662,0.131432 0.604721,0.104713 1,0.499992c0.395294,0.395279 0.604706,0.604706 0.999985,0.999992c0.395279,0.395279 0.25,0.499992 0.5,0.749992c0.25,0.25 0.749985,0.749992 0.749985,0.749992c0,0.25 0.104721,0.354713 0.5,0.749992c0.395279,0.395287 0.423355,0.3647 0.749985,0.499992c0.230972,0.095673 0.269028,0.154327 0.5,0.25c0.326645,0.1353 0.25,0.499992 0.25,0.499992c0.25,0 0.25,0.25 0.5,0.5c0.249985,0.249992 0.499985,0.499992 0.499985,0.499992c0,0.25 0.154327,0.269028 0.25,0.499992c0.1353,0.326637 0.573227,0.323227 0.75,0.5c0.176773,0.176773 0,0.5 0.249985,0.749992c0.25,0.25 0.323227,0.323219 0.5,0.499992c0.176773,0.176773 0.154327,0.269028 0.25,0.499992c0.1353,0.326637 0.573212,0.073235 0.749985,0.25c0.176773,0.176773 0,0.499992 0.25,0.749992c0.25,0.25 0.5,0.749992 0.75,0.999992c0.25,0.249992 0.25,0.249992 0.25,0.249992c0.249985,0.25 0.269012,0.404327 0.499985,0.5c0.32663,0.135292 0.5,0.249992 0.5,0.499992c0,0 -0.076645,0.1147 0.25,0.25c0.230972,0.095673 0.404312,0.26902 0.499985,0.499992c0.1353,0.326637 0.323227,0.073227 0.5,0.25c0.176773,0.176773 0.25,0.249992 0.25,0.499992c0,0.25 0.25,0.25 0.5,0.499992c0,0 0.073212,-0.176765 0.249985,0c0.176773,0.176773 0.073227,0.323227 0.25,0.5c0.176773,0.176773 0.323227,0.073219 0.5,0.249992c0.176773,0.176773 0,0.25 0,0.25l0.25,0l0,0l-0.25,0" id="svg_34" fill-opacity="null" stroke-opacity="null" stroke-width="1.5" stroke="#000" fill="none"/>
  <path d="m379.746155,84.249138c0.25,0 0.354706,-0.104713 0.75,-0.499992c0.395294,-0.395279 1.675507,-1.393379 3.499969,-2.249985c1.933472,-0.907776 3.626007,-1.258865 4.749939,-1.999977c0.885468,-0.583878 1.952209,-1.330345 2.749969,-1.749985c1.191498,-0.626762 2.190247,-1.353958 2.999969,-1.749977c0.710175,-0.347336 1.046509,-0.423126 1.5,-0.749992c0.573608,-0.413445 1.074646,-0.487129 1.499969,-0.749992c0.475525,-0.293892 0.949249,-0.814117 1.25,-0.999992c0.672485,-0.415619 0.753204,-0.709946 0.999969,-0.749992c0.780365,-0.126633 0.796509,-0.423126 1.25,-0.749992c0.286804,-0.206726 0.5,-0.499992 0.5,-0.499992c0.25,0 0.519043,-0.154343 0.749969,-0.25c0.32663,-0.1353 0.288055,-0.308647 0.75,-0.499992c0.32663,-0.1353 0.5,-0.25 0.5,-0.25c0.25,-0.25 0.5,-0.499992 0.75,-0.499992l0.25,0l0,-0.25l-0.25,0" id="svg_35" fill-opacity="null" stroke-opacity="null" stroke-width="1.5" stroke="#000" fill="none"/>
  <path d="m379.996155,84.499138c0.25,0 0.323212,-0.176773 0.5,0c0.176758,0.176773 0.699219,0.814117 0.999969,0.999985c0.672516,0.415619 1.774475,0.9561 2.25,1.249992c1.063293,0.65715 1.936646,1.592812 2.999969,2.249977c0.951019,0.587769 1.782959,0.938805 2.749969,1.499985c0.779602,0.452423 1.27002,0.827667 1.999969,0.999985c0.544067,0.128433 1.28772,0.108673 1.749969,0.749992c0.146179,0.202812 1.521881,0.448463 2.75,0.999992c0.509918,0.228996 1.455902,0.621559 1.999969,0.749992c0.486633,0.114876 0.705933,0.371559 1.249969,0.499992c0.243317,0.057442 0.796509,0.173141 1.25,0.5c0.286804,0.206718 0.42337,0.364693 0.75,0.499992c0.230957,0.095673 0.75,0.25 1.249969,0.499992c0,0 0.288055,0.058655 0.75,0.25c0.32663,0.1353 0.896454,0.146439 1.25,0.499992c0.176788,0.176773 0.25,0.25 0.5,0.25l0,0.25l0.249969,0.249992l0.25,0" id="svg_36" fill-opacity="null" stroke-opacity="null" stroke-width="1.5" stroke="#000" fill="none"/>
 </g>
</svg>