<svg width="350" height="390" xmlns="http://www.w3.org/2000/svg">
 <!-- Created with Method Draw - http://github.com/duopixel/Method-Draw/ -->
 <g>
  <title>background</title>
  <rect fill="#fff" id="canvas_background" height="392" width="352" y="-1" x="-1"/>
 </g>
 <g>
  <title>Layer 1</title>
  <rect stroke="#000" id="svg_37" height="66.363638" width="122.727262" y="37.272746" x="6.363678" fill-opacity="null" stroke-opacity="null" stroke-width="1.5" fill="#fff"/>
  <text xml:space="preserve" text-anchor="start" font-family="Helvetica, Arial, sans-serif" font-size="20" id="svg_38" y="24.545475" x="11.818223" fill-opacity="null" stroke-opacity="null" stroke-width="0" stroke="#000" fill="#000000">Animal</text>
  <rect stroke="#000" id="svg_41" height="35.454546" width="92.727264" y="64.545472" x="18.181859" fill-opacity="null" stroke-opacity="null" stroke-width="1.5" fill="#fff"/>
  <text xml:space="preserve" text-anchor="start" font-family="Helvetica, Arial, sans-serif" font-size="18" id="svg_44" y="59.090926" x="23.636404" fill-opacity="null" stroke-opacity="null" stroke-width="0" stroke="#000" fill="#000000">func1</text>
  <text stroke="#000" transform="matrix(0.9367839097976685,0,0,0.9538702119120899,1.4939291527889509,-9.561905369023698) " xml:space="preserve" text-anchor="start" font-family="Helvetica, Arial, sans-serif" font-size="18" id="svg_49" y="103.614636" x="30.245429" fill-opacity="null" stroke-opacity="null" stroke-width="0" fill="#000000">logic</text>
  <ellipse stroke="#000" transform="rotate(-0.11610543727874756 256.81817626953426,77.9090957641781) " ry="41.949832" rx="48.127422" id="svg_53" cy="77.909097" cx="256.818167" fill-opacity="null" stroke-opacity="null" stroke-width="1.5" fill="#fff"/>
  <text xml:space="preserve" text-anchor="start" font-family="Helvetica, Arial, sans-serif" font-size="18" id="svg_56" y="59.999979" x="234.545463" fill-opacity="null" stroke-opacity="null" stroke-width="0" stroke="#000" fill="#000000">func1</text>
  <rect id="svg_58" height="37.272723" width="35.454542" y="66.818204" x="238.181822" fill-opacity="null" stroke-opacity="null" stroke-width="1.5" stroke="#000" fill="#fff"/>
  <text stroke="#000" transform="matrix(0.9411115050315857,0,0,1,19.754329663701355,0) " xml:space="preserve" text-anchor="start" font-family="Helvetica, Arial, sans-serif" font-size="14" id="svg_60" y="90.454566" x="234.936185" fill-opacity="null" stroke-opacity="null" stroke-width="0" fill="#000000">logic</text>
  <text xml:space="preserve" text-anchor="start" font-family="Helvetica, Arial, sans-serif" font-size="20" id="svg_62" y="23.636384" x="208.181841" fill-opacity="null" stroke-opacity="null" stroke-width="0" stroke="#000" fill="#000000">Animal Object</text>
  <rect stroke="#000" id="svg_63" height="79.090914" width="115.454538" y="184.545452" x="4.545497" fill-opacity="null" stroke-opacity="null" stroke-width="1.5" fill="#fff"/>
  <text style="cursor: move;" xml:space="preserve" text-anchor="start" font-family="Helvetica, Arial, sans-serif" font-size="20" id="svg_64" y="170.909094" x="7.272769" fill-opacity="null" stroke-opacity="null" stroke-width="0" stroke="#000" fill="#000000">Dog</text>
  <rect stroke="#000" id="svg_67" height="35.454546" width="92.727264" y="223.636362" x="15.454587" fill-opacity="null" stroke-opacity="null" stroke-width="1.5" fill="#fff"/>
  <text style="cursor: move;" xml:space="preserve" text-anchor="start" font-family="Helvetica, Arial, sans-serif" font-size="18" id="svg_69" y="213.636362" x="17.272768" fill-opacity="null" stroke-opacity="null" stroke-width="0" stroke="#000" fill="#000000">func2</text>
  <text stroke="#000" transform="matrix(0.9367839097976685,0,0,0.9538702119120899,1.4939291527889509,-9.561905369023698) " xml:space="preserve" text-anchor="start" font-family="Helvetica, Arial, sans-serif" font-size="18" id="svg_71" y="269.446211" x="25.393239" fill-opacity="null" stroke-opacity="null" stroke-width="0" fill="#000000">logic</text>
  <path transform="rotate(90.21006774902344 73.98313903808595,139.56190490722656) " id="svg_73" d="m66.524941,154.023327c-1.757797,-0.804264 -1.527175,-1.291286 2.746554,-5.799695c2.158026,-2.276513 3.923668,-4.205271 3.923668,-4.286127c0,-0.08085 -5.959051,-0.147005 -13.242378,-0.147005l-13.242378,0l0,-4.263679l0,-4.263679l13.34733,0c10.291543,0 13.232434,-0.128443 12.845558,-0.561012c-0.275972,-0.308556 -2.158509,-2.356078 -4.183417,-4.550042c-3.816978,-4.135674 -3.81578,-5.244761 0.005898,-5.588539c1.901906,-0.17108 31.512316,12.973759 32.530086,14.440971c-9.862969,5.23875 -21.652559,10.722378 -32.512692,15.55738c-0.572631,0 -1.570821,-0.242357 -2.218228,-0.538572l-0.000002,0z" fill-opacity="null" stroke-opacity="null" stroke-width="1.5" stroke="#000" fill="#fff"/>
  <ellipse stroke="#000" transform="rotate(0.10839799791574478 250.90908813480027,287.9090576171867) " ry="93.005644" rx="89.3208" id="svg_74" cy="287.90908" cx="250.909095" fill-opacity="null" stroke-opacity="null" stroke-width="1.5" fill="#fff"/>
  <text xml:space="preserve" text-anchor="start" font-family="Helvetica, Arial, sans-serif" font-size="18" id="svg_75" y="313.636312" x="228.181834" fill-opacity="null" stroke-opacity="null" stroke-width="0" stroke="#000" fill="#000000">func 2</text>
  <rect id="svg_76" height="37.272723" width="35.454542" y="324.090902" x="233.63637" fill-opacity="null" stroke-opacity="null" stroke-width="1.5" stroke="#000" fill="#fff"/>
  <text stroke="#000" transform="matrix(0.9411115050315857,0,0,1,19.754329663701355,0) " xml:space="preserve" text-anchor="start" font-family="Helvetica, Arial, sans-serif" font-size="14" id="svg_77" y="346.818175" x="231.072282" fill-opacity="null" stroke-opacity="null" stroke-width="0" fill="#000000">logic</text>
  <text style="cursor: move;" xml:space="preserve" text-anchor="start" font-family="Helvetica, Arial, sans-serif" font-size="20" id="svg_78" y="185.454546" x="207.27275" fill-opacity="null" stroke-opacity="null" stroke-width="0" stroke="#000" fill="#000000">Dog Object</text>
  <ellipse stroke="#000" transform="rotate(-0.5396944284439087 253.63632202149088,241.99998474121097) " ry="45.950648" rx="48.68042" id="svg_79" cy="241.999987" cx="253.636345" fill-opacity="null" stroke-opacity="null" stroke-width="1.5" fill="#fff"/>
  <text xml:space="preserve" text-anchor="start" font-family="Helvetica, Arial, sans-serif" font-size="16" id="svg_80" y="223.636327" x="230.909098" fill-opacity="null" stroke-opacity="null" stroke-width="0" stroke="#000" fill="#000000">func1</text>
  <rect id="svg_81" height="37.272723" width="35.454542" y="229.545462" x="231.818184" fill-opacity="null" stroke-opacity="null" stroke-width="1.5" stroke="#000" fill="#fff"/>
  <text stroke="#000" transform="matrix(0.9411115050315857,0,0,1,19.754329663701355,0) " xml:space="preserve" text-anchor="start" font-family="Helvetica, Arial, sans-serif" font-size="14" id="svg_82" y="254.090915" x="228.174353" fill-opacity="null" stroke-opacity="null" stroke-width="0" fill="#000000">logic</text>
  <path stroke="#000" transform="rotate(90.21006774902344 259.8922424316406,140.925537109375) " id="svg_84" d="m254.296303,153.171763c-1.318888,-0.681066 -1.14585,-1.093486 2.060759,-4.911294c1.619182,-1.927795 2.943956,-3.561106 2.943956,-3.629575c0,-0.068465 -4.471119,-0.124488 -9.93585,-0.124488l-9.935851,0l0,-3.610566l0,-3.610566l10.014598,0c7.721818,0 9.92839,-0.108768 9.638113,-0.475076c-0.207064,-0.261291 -1.619545,-1.995172 -3.138848,-3.853064c-2.863906,-3.50217 -2.863007,-4.441366 0.004425,-4.732483c1.427014,-0.144874 23.643917,10.986429 24.407556,12.228894c-7.400256,4.436275 -16.24607,9.079917 -24.394505,13.17429c-0.429648,0 -1.178597,-0.205233 -1.664352,-0.456073l-0.000002,0z" fill-opacity="null" stroke-opacity="null" stroke-width="1.5" fill="#fff"/>
 </g>
</svg>